<?xml version="1.0" encoding="UTF-8"?>
<svg id="Layer_1" data-name="Layer 1" xmlns="http://www.w3.org/2000/svg" viewBox="0 0 233.99 62.93">
  <defs>
    <style>
      .cls-1 {
        fill: #231f20;
      }
    </style>
  </defs>
  <g>
    <path class="cls-1" d="M9.58,31.38l-2.44,13.84H2.32L7.42,16.28h10.02l-.77,4.38h-5.2l-1.12,6.33h5.03l-.77,4.38h-5.03Z"/>
    <path class="cls-1" d="M22.9,16.28l-5.1,28.94h-4.59l5.1-28.94h4.59Z"/>
    <path class="cls-1" d="M27.86,21.97l-4.1,23.26h-4.59l4.1-23.26h4.59Zm1-5.68l-.72,4.1h-4.59l.72-4.1h4.59Z"/>
    <path class="cls-1" d="M35.7,21.97h4.62l-3.7,20.96c-.47,2.68-1.35,4.58-2.62,5.72s-2.74,1.7-4.38,1.7c-1.51,0-2.71-.45-3.61-1.34-.9-.89-1.22-2.08-.95-3.57l.4-2.27h4.59l-.27,1.54c-.17,.95,.07,1.42,.71,1.42s1.04-.47,1.21-1.41l1.01-5.73c-.31,.97-.77,1.79-1.39,2.44-.62,.65-1.31,.97-2.09,.97-2.42,0-3.29-1.95-2.6-5.85l1.68-9.5c.32-1.81,.86-3.17,1.62-4.06,.76-.89,1.56-1.34,2.39-1.34,.74,0,1.34,.24,1.81,.71,.47,.47,.8,1.35,.98,2.62l.59-3Zm-3.11,6.74l-1.17,6.66c-.21,1.16,.01,1.75,.65,1.75s1.06-.58,1.27-1.75l1.17-6.66c.21-1.16-.01-1.75-.65-1.75s-1.06,.58-1.27,1.75Z"/>
    <path class="cls-1" d="M44.89,29.48l-2.78,15.75h-4.59l5.1-28.94h4.59l-1.51,8.57c.93-2.11,2.23-3.17,3.9-3.17,2.13,0,2.87,1.84,2.22,5.53l-3.18,18.01h-4.62l2.78-15.75c.14-.81,.2-1.44,.17-1.87-.03-.43-.26-.65-.68-.65-.33,0-.6,.16-.81,.49-.21,.32-.41,1-.59,2.03Z"/>
    <path class="cls-1" d="M51.94,40.39l2.5-14.2h-1.54l.74-4.22h1.54l.73-4.14h4.59l-.73,4.14h2.03l-.74,4.22h-2.03l-2.24,12.7c-.14,.81-.19,1.37-.14,1.67,.05,.3,.35,.45,.9,.45h.9l-.74,4.22h-3.78c-1.07,0-1.74-.38-2.02-1.14-.28-.76-.27-1.99,.03-3.7Z"/>
    <path class="cls-1" d="M81.68,22.09l-.8,4.55h-4.82l.72-4.06c.26-1.49-.04-2.23-.91-2.23-.43,0-.77,.12-1.02,.36-.26,.24-.47,.86-.65,1.86-.2,1.14-.13,1.99,.2,2.55s1.09,1.68,2.27,3.32c1.18,1.65,1.93,3.16,2.25,4.54,.32,1.38,.32,2.97,0,4.78-.93,5.3-3.45,7.94-7.56,7.94-1.69,0-3.03-.47-4.05-1.42-1.02-.94-1.31-2.62-.89-5.02l.94-5.34h4.82l-.88,4.96c-.12,.7-.15,1.24-.08,1.61,.07,.38,.39,.57,.97,.57,.87,0,1.44-.73,1.69-2.19,.21-1.19,.2-2.18-.03-2.98-.23-.8-.98-2.03-2.25-3.71-1.27-1.68-2.06-3.17-2.36-4.48-.3-1.31-.29-2.91,.05-4.8,.85-4.81,3.33-7.21,7.46-7.21,1.72,0,3.08,.47,4.07,1.4,.99,.93,1.27,2.59,.85,4.97Z"/>
    <path class="cls-1" d="M87.63,21.97l-4.1,23.26h-4.59l4.1-23.26h4.59Zm1-5.68l-.72,4.1h-4.59l.72-4.1h4.59Z"/>
    <path class="cls-1" d="M89.02,21.97h4.42l-.54,3.08c.94-2.25,2.23-3.37,3.88-3.37s2.48,1.12,2.4,3.37c.32-.95,.79-1.75,1.41-2.39,.62-.65,1.42-.97,2.41-.97,2.01,0,2.73,1.64,2.15,4.92l-3.28,18.62h-4.42l2.85-16.16c.15-.84,.18-1.4,.09-1.68-.09-.28-.3-.43-.65-.43-.39,0-.66,.16-.82,.47-.16,.31-.31,.86-.45,1.64l-2.85,16.16h-4.44l2.85-16.16c.13-.76,.17-1.3,.1-1.62-.07-.32-.29-.49-.65-.49-.39,0-.66,.16-.82,.47-.16,.31-.31,.86-.45,1.64l-2.85,16.16h-4.42l4.1-23.26Z"/>
    <path class="cls-1" d="M114.38,45.19h-4.62l.51-2.88c-.88,2.11-2.2,3.17-3.96,3.17-.89,0-1.57-.37-2.03-1.1s-.51-2.14-.14-4.22l3.21-18.19h4.59l-2.84,16.12c-.13,.76-.17,1.3-.1,1.62,.07,.32,.29,.49,.65,.49,.66,0,1.11-.7,1.36-2.11l2.84-16.12h4.62l-4.09,23.22Z"/>
    <path class="cls-1" d="M125.4,16.28l-5.1,28.94h-4.59l5.1-28.94h4.59Z"/>
    <path class="cls-1" d="M132.77,45.19h-4.62l.48-2.72c-.56,1-1.12,1.75-1.67,2.25-.55,.5-1.27,.75-2.14,.75-1.01,0-1.72-.41-2.15-1.24-.43-.83-.51-2-.24-3.51l.61-3.45c.2-1.14,.59-2.12,1.17-2.94,.58-.83,1.55-1.65,2.91-2.48,1.36-.83,2.33-1.47,2.94-1.93,.6-.46,1-1.23,1.19-2.31,.2-1.14-.02-1.71-.66-1.71s-1.06,.57-1.26,1.71l-.45,2.56h-4.59l.38-2.15c.35-2,1.12-3.56,2.3-4.67,1.18-1.11,2.64-1.66,4.36-1.66,1.53,0,2.76,.48,3.68,1.44,.92,.96,1.18,2.59,.78,4.89l-3.03,17.17Zm-5.04-8.48l-.44,2.52c-.07,.41-.04,.71,.08,.91,.13,.2,.31,.3,.54,.3,.39,0,.7-.18,.92-.55,.23-.37,.45-1.17,.67-2.42l.71-4.02c-.43,.35-.86,.69-1.28,1.02-.66,.65-1.06,1.39-1.21,2.23Z"/>
    <path class="cls-1" d="M136.05,40.39l2.5-14.2h-1.54l.74-4.22h1.54l.73-4.14h4.59l-.73,4.14h2.03l-.74,4.22h-2.03l-2.24,12.7c-.14,.81-.19,1.37-.13,1.67,.05,.3,.35,.45,.89,.45h.9l-.74,4.22h-3.78c-1.07,0-1.74-.38-2.02-1.14-.28-.76-.27-1.99,.03-3.7Z"/>
    <path class="cls-1" d="M156.85,28.22l-1.95,11.08c-.32,1.84-1.08,3.33-2.27,4.47s-2.65,1.7-4.4,1.7c-1.61,0-2.84-.51-3.71-1.54-.86-1.03-1.11-2.57-.75-4.63l1.95-11.08c.32-1.84,1.01-3.39,2.05-4.65,1.05-1.26,2.59-1.89,4.65-1.89,1.63,0,2.88,.48,3.75,1.44,.88,.96,1.1,2.66,.67,5.09Zm-6.41-.69l-2.13,12.1c-.19,1.08,.03,1.62,.67,1.62s1.05-.54,1.25-1.62l2.13-12.1c.19-1.08-.03-1.62-.67-1.62s-1.05,.54-1.24,1.62Z"/>
    <path class="cls-1" d="M159.25,21.97h4.59l-.54,3.04c1.15-2.22,2.48-3.33,4.01-3.33,.95,0,1.64,.34,2.08,1.03,.44,.69,.51,1.86,.22,3.51l-1.46,8.28h-4.62l1-5.64c.22-1.27,.02-1.91-.62-1.91s-1.07,.64-1.29,1.91l-2.88,16.36h-4.59l4.1-23.26Z"/>
    <path class="cls-1" d="M179.74,41h7.52l-.74,4.22h-12.34l.63-3.58c.4-2.28,1.09-4.25,2.07-5.92,.98-1.67,2.04-3.19,3.17-4.55,1.13-1.37,2.04-2.5,2.72-3.4,.68-.89,1.18-1.56,1.5-1.99s.6-.96,.86-1.57c.25-.61,.43-1.21,.54-1.81,.11-.62,.09-1.13-.05-1.5-.15-.38-.45-.57-.92-.57-.87,0-1.43,.69-1.67,2.07l-.74,4.18h-4.82l.56-3.17c.48-2.71,1.33-4.67,2.55-5.89,1.22-1.22,2.92-1.83,5.09-1.83s3.5,.73,4.22,2.18,.9,3.22,.53,5.31c-.13,.73-.32,1.48-.58,2.24-.26,.76-.56,1.46-.91,2.12-.35,.65-.72,1.27-1.11,1.87-.4,.6-1.01,1.4-1.85,2.4-.83,1-2.03,2.49-3.57,4.45-1.55,1.96-2.43,3.54-2.64,4.74Z"/>
    <path class="cls-1" d="M203.83,24.15l-2.42,13.7c-.43,2.43-1.24,4.35-2.42,5.76-1.19,1.41-2.88,2.11-5.09,2.11-1.96,0-3.35-.65-4.19-1.95-.84-1.3-1.02-3.27-.55-5.92l2.42-13.7c.48-2.73,1.4-4.82,2.75-6.26,1.35-1.45,2.99-2.17,4.93-2.17,2.17,0,3.6,.71,4.29,2.13,.69,1.42,.79,3.52,.3,6.3Zm-7.46,14.99l2.97-16.85c.23-1.3-.1-1.94-.99-1.94s-1.39,.65-1.62,1.94l-2.97,16.85c-.23,1.3,.08,1.94,.94,1.94s1.45-.65,1.68-1.94Z"/>
    <path class="cls-1" d="M217.37,24.15l-2.42,13.7c-.43,2.43-1.24,4.35-2.42,5.76-1.19,1.41-2.88,2.11-5.09,2.11-1.96,0-3.35-.65-4.19-1.95-.84-1.3-1.02-3.27-.55-5.92l2.42-13.7c.48-2.73,1.4-4.82,2.75-6.26,1.35-1.45,2.99-2.17,4.93-2.17,2.17,0,3.6,.71,4.29,2.13,.69,1.42,.79,3.52,.3,6.3Zm-7.46,14.99l2.97-16.85c.23-1.3-.1-1.94-.99-1.94s-1.39,.65-1.62,1.94l-2.97,16.85c-.23,1.3,.08,1.94,.94,1.94s1.45-.65,1.68-1.94Z"/>
    <path class="cls-1" d="M222.55,38.57h-6.97l.82-4.63,8.75-17.66h5.87l-3.11,17.66h1.6l-.82,4.63h-1.6l-1.17,6.66h-4.53l1.17-6.66Zm2.88-16.31l-5.85,11.67h3.79s2.06-11.67,2.06-11.67Z"/>
  </g>
  <g>
    <path class="cls-1" d="M11.69,4.32l-1.91,10.61h-2.32L9.66,2.51h4.28l-.33,8.82,2.8-8.82h4.16l-2.19,12.42h-2.61l1.87-10.61-3.58,10.61h-2.54l.18-10.61Z"/>
    <path class="cls-1" d="M23.69,4.95l-1.76,9.98h-2.75l1.76-9.98h2.75Zm.43-2.44l-.31,1.76h-2.75l.31-1.76h2.75Z"/>
    <path class="cls-1" d="M30.54,8.47h-2.77l.2-1.13c.08-.46-.07-.7-.45-.7s-.62,.23-.7,.7l-.92,5.19c-.08,.47,.07,.7,.45,.7s.62-.23,.7-.7l.27-1.55h2.77l-.26,1.46c-.16,.89-.56,1.55-1.21,1.97-.65,.42-1.52,.63-2.61,.63-2.21,0-3.15-.92-2.82-2.77l.82-4.65c.15-.85,.57-1.52,1.26-2.03,.69-.5,1.54-.76,2.55-.76s1.83,.22,2.35,.65c.52,.44,.69,1.15,.52,2.15l-.15,.84Z"/>
    <path class="cls-1" d="M34.13,8.17l-1.19,6.76h-2.75l2.19-12.42h2.75l-.65,3.68c.5-.91,1.24-1.36,2.24-1.36,1.28,0,1.78,.79,1.5,2.37l-1.36,7.73h-2.77l1.19-6.76c.06-.35,.08-.62,.05-.8-.03-.19-.17-.28-.43-.28-.2,0-.36,.07-.47,.21-.12,.14-.22,.43-.29,.87Z"/>
    <path class="cls-1" d="M44.31,14.91h-2.77l.21-1.17c-.31,.43-.62,.75-.94,.97-.32,.21-.74,.32-1.26,.32-.6,0-1.05-.18-1.33-.53-.28-.35-.36-.86-.25-1.51l.26-1.48c.09-.49,.29-.91,.62-1.26,.32-.35,.88-.71,1.67-1.06,.79-.35,1.36-.63,1.71-.83,.35-.2,.56-.53,.64-.99,.09-.49-.06-.73-.45-.73s-.62,.24-.7,.73l-.19,1.1h-2.75l.16-.92c.15-.86,.57-1.53,1.24-2,.68-.48,1.53-.71,2.57-.71,.92,0,1.67,.21,2.25,.62,.58,.41,.79,1.11,.61,2.1l-1.3,7.37Zm-3.28-3.64l-.19,1.08c-.03,.17,0,.31,.08,.39,.08,.09,.19,.13,.33,.13,.23,0,.41-.08,.54-.24,.13-.16,.24-.5,.33-1.04l.3-1.72c-.25,.15-.49,.3-.74,.44-.37,.28-.59,.6-.66,.96Z"/>
    <path class="cls-1" d="M53.05,7.63l-.46,2.61h-3.92l-.36,2.02c-.11,.64,.02,.96,.41,.96s.63-.32,.74-.96l.23-1.29h2.77l-.26,1.46c-.15,.87-.56,1.52-1.21,1.95-.66,.43-1.52,.64-2.59,.64-.96,0-1.72-.22-2.27-.66-.55-.44-.75-1.1-.59-1.98l.84-4.76c.14-.79,.5-1.46,1.09-1.99,.59-.54,1.5-.81,2.73-.81,1.02,0,1.8,.22,2.32,.66,.53,.44,.7,1.16,.53,2.14Zm-3.85-.4l-.24,1.36h1.15l.24-1.36c.07-.39-.09-.59-.47-.59s-.61,.2-.68,.59Z"/>
    <path class="cls-1" d="M57.51,2.51l-2.19,12.42h-2.75l2.19-12.42h2.75Z"/>
    <path class="cls-1" d="M57.37,6.88l1.35-4.37h2.56l-2.15,4.37h-1.76Z"/>
    <path class="cls-1" d="M67.7,7.32l-.2,1.15h-2.77l.19-1.08c.09-.5-.06-.75-.44-.75s-.62,.25-.71,.75c-.07,.41,.05,.73,.37,.96,.41,.24,.86,.53,1.36,.85,.49,.33,.87,.69,1.13,1.1,.26,.41,.32,.98,.19,1.72-.35,2.01-1.7,3.01-4.03,3.01-.95,0-1.68-.19-2.17-.58-.5-.39-.67-1.02-.51-1.89l.28-1.59h2.75l-.26,1.5c-.09,.5,.06,.75,.44,.75s.62-.25,.71-.75c.08-.46,.03-.81-.15-1.05-.18-.23-.63-.58-1.37-1.04-.68-.38-1.13-.77-1.36-1.18-.23-.4-.29-.94-.17-1.61,.16-.92,.57-1.61,1.23-2.07,.66-.46,1.48-.7,2.48-.7,1.1,0,1.92,.21,2.44,.63,.52,.42,.71,1.04,.57,1.86Z"/>
  </g>
  <g>
    <path class="cls-1" d="M144.16,58.69l4.3-12.42h3.99l-.59,12.42h-2.88l.21-3.07h-1.58l-1.01,3.07h-2.44Zm4.09-4.95h1.06l.45-5.52-1.51,5.52Z"/>
    <path class="cls-1" d="M159.14,58.68h-2.77l.22-1.25c-.31,.92-1.04,1.38-2.18,1.38-.72,0-1.18-.24-1.4-.73-.21-.49-.25-1.07-.13-1.76l.97-5.5c.26-1.48,1.03-2.21,2.31-2.21,.49,0,.88,.13,1.17,.39,.29,.26,.47,.62,.52,1.09l.7-3.8h2.77l-2.19,12.4Zm-2.66-7.14l-.76,4.32c-.03,.17-.01,.33,.05,.47,.06,.14,.2,.21,.41,.21s.37-.06,.47-.17c.11-.12,.18-.28,.22-.5l.76-4.32c.04-.23,.02-.4-.07-.51-.09-.11-.22-.17-.38-.17-.38,0-.62,.23-.7,.68Z"/>
    <path class="cls-1" d="M166.6,58.68h-2.77l.22-1.25c-.31,.92-1.04,1.38-2.18,1.38-.72,0-1.18-.24-1.4-.73-.21-.49-.25-1.07-.13-1.76l.97-5.5c.26-1.48,1.03-2.21,2.31-2.21,.49,0,.88,.13,1.17,.39,.29,.26,.47,.62,.52,1.09l.7-3.8h2.77l-2.19,12.4Zm-2.66-7.14l-.76,4.32c-.03,.17-.01,.33,.05,.47,.06,.14,.2,.21,.41,.21s.37-.06,.47-.17c.11-.12,.18-.28,.22-.5l.76-4.32c.04-.23,.02-.4-.07-.51-.09-.11-.22-.17-.38-.17-.38,0-.62,.23-.7,.68Z"/>
    <path class="cls-1" d="M175.33,51.4l-.84,4.76c-.14,.79-.55,1.43-1.23,1.92-.68,.49-1.54,.73-2.58,.73-.96,0-1.72-.22-2.27-.66-.55-.44-.75-1.1-.59-1.99l.84-4.76c.14-.79,.5-1.46,1.09-1.99,.59-.54,1.5-.81,2.73-.81,.97,0,1.74,.21,2.29,.62,.55,.41,.74,1.14,.56,2.19Zm-3.87-.3l-.92,5.19c-.08,.47,.07,.7,.45,.7s.62-.23,.7-.7l.92-5.19c.08-.46-.07-.7-.45-.7s-.62,.23-.7,.7Z"/>
    <path class="cls-1" d="M176.59,48.71h2.75l-.22,1.24c.47-.91,1.24-1.36,2.29-1.36,.55,0,.96,.17,1.25,.51,.29,.34,.36,.93,.21,1.78l-1.38,7.82h-2.77l1.22-6.93c.06-.36,.07-.6,0-.72s-.19-.18-.4-.18c-.39,0-.65,.3-.75,.91l-1.22,6.93h-2.75l1.76-9.98Z"/>
    <path class="cls-1" d="M190.3,51.08l-.2,1.15h-2.77l.19-1.08c.09-.5-.06-.75-.44-.75s-.62,.25-.71,.75c-.07,.41,.05,.73,.37,.96,.41,.24,.86,.53,1.36,.85,.49,.33,.87,.69,1.13,1.1,.26,.41,.32,.98,.19,1.72-.35,2.01-1.7,3.01-4.03,3.01-.95,0-1.68-.19-2.17-.58-.5-.39-.67-1.02-.51-1.89l.28-1.59h2.75l-.26,1.5c-.09,.5,.06,.75,.44,.75s.62-.25,.71-.75c.08-.46,.03-.81-.15-1.05-.18-.23-.63-.58-1.37-1.04-.68-.38-1.13-.78-1.36-1.18-.23-.4-.29-.94-.17-1.61,.16-.92,.57-1.61,1.23-2.07,.66-.46,1.49-.7,2.48-.7,1.1,0,1.92,.21,2.44,.63,.52,.42,.71,1.04,.57,1.86Z"/>
    <path class="cls-1" d="M197.54,53.89l-.85,4.81h-2.89l2.19-12.42h3.54c1.29,0,2.21,.2,2.76,.6,.55,.4,.74,1.09,.57,2.06l-.4,2.26c-.14,.8-.55,1.45-1.22,1.94s-1.55,.74-2.63,.74h-1.06Zm1.03-5.84l-.72,4.06h.45c.43,0,.74-.12,.93-.35s.37-.79,.52-1.67c.13-.75,.19-1.28,.17-1.58-.02-.3-.47-.45-1.36-.45Z"/>
    <path class="cls-1" d="M208.59,58.68h-2.77l.21-1.17c-.31,.43-.62,.75-.94,.97-.32,.21-.74,.32-1.26,.32-.6,0-1.05-.18-1.33-.53-.28-.35-.36-.86-.25-1.51l.26-1.48c.09-.49,.29-.91,.62-1.26,.32-.35,.88-.71,1.67-1.06,.79-.35,1.36-.63,1.71-.83,.35-.2,.56-.53,.64-.99,.09-.49-.06-.73-.45-.73s-.62,.24-.7,.73l-.19,1.1h-2.75l.16-.92c.15-.86,.57-1.53,1.24-2,.68-.48,1.53-.71,2.57-.71,.92,0,1.67,.21,2.25,.62s.79,1.11,.61,2.1l-1.3,7.37Zm-3.28-3.64l-.19,1.08c-.03,.17,0,.3,.08,.39,.08,.09,.2,.13,.33,.13,.23,0,.41-.08,.54-.24,.13-.16,.24-.5,.33-1.04l.3-1.72c-.25,.15-.49,.3-.74,.44-.37,.28-.59,.6-.66,.96Z"/>
    <path class="cls-1" d="M215.04,48.71h2.77l-1.59,8.99c-.2,1.15-.67,1.97-1.4,2.45-.73,.49-1.59,.73-2.58,.73-.91,0-1.64-.19-2.21-.57-.57-.38-.79-.89-.68-1.53l.17-.98h2.75l-.12,.66c-.07,.41,.08,.61,.47,.61s.61-.2,.68-.61l.43-2.46c-.15,.42-.41,.77-.76,1.04-.35,.28-.76,.42-1.22,.42-1.45,0-2.03-.83-1.74-2.51l.72-4.08c.14-.78,.42-1.36,.85-1.74,.43-.38,.89-.58,1.4-.58,.44,0,.81,.1,1.11,.3,.3,.2,.52,.58,.67,1.12l.26-1.29Zm-1.66,2.89l-.5,2.86c-.09,.5,.06,.75,.44,.75s.62-.25,.71-.75l.5-2.86c.09-.5-.06-.75-.44-.75s-.62,.25-.71,.75Z"/>
    <path class="cls-1" d="M224.79,51.4l-.46,2.61h-3.92l-.36,2.02c-.11,.64,.02,.96,.41,.96s.63-.32,.74-.96l.23-1.29h2.77l-.26,1.46c-.15,.87-.56,1.52-1.21,1.95-.66,.43-1.52,.64-2.59,.64-.96,0-1.72-.22-2.27-.66-.55-.44-.75-1.1-.59-1.99l.84-4.76c.14-.79,.5-1.46,1.09-1.99,.59-.54,1.5-.81,2.73-.81,1.02,0,1.79,.22,2.32,.66s.7,1.16,.53,2.14Zm-3.85-.4l-.24,1.36h1.15l.24-1.36c.07-.39-.09-.59-.47-.59s-.61,.2-.68,.59Z"/>
  </g>
</svg>